<?xml version="1.0" encoding="UTF-8" standalone="no"?>
<svg
   height="16px"
   viewBox="0 0 16 16"
   width="16px"
   version="1.1"
   id="svg3"
   sodipodi:docname="dock-left-symbolic.svg"
   inkscape:version="1.4.2 (ebf0e940d0, 2025-05-08)"
   xmlns:inkscape="http://www.inkscape.org/namespaces/inkscape"
   xmlns:sodipodi="http://sodipodi.sourceforge.net/DTD/sodipodi-0.dtd"
   xmlns="http://www.w3.org/2000/svg"
   xmlns:svg="http://www.w3.org/2000/svg">
  <defs
     id="defs3" />
  <sodipodi:namedview
     id="namedview3"
     pagecolor="#ffffff"
     bordercolor="#000000"
     borderopacity="0.25"
     inkscape:showpageshadow="2"
     inkscape:pageopacity="0.0"
     inkscape:pagecheckerboard="0"
     inkscape:deskcolor="#d1d1d1"
     inkscape:zoom="90.5"
     inkscape:cx="7.9944751"
     inkscape:cy="8"
     inkscape:window-width="3072"
     inkscape:window-height="1659"
     inkscape:window-x="0"
     inkscape:window-y="0"
     inkscape:window-maximized="1"
     inkscape:current-layer="svg3" />
  <g
     fill="#222222"
     id="g3"
     inkscape:label="g3">
    <path
       d="m 6.5 13.992188 v -12 h -5 v 12 z m 0 0"
       fill-opacity="0.34902"
       id="path1" />
    <path
       d="m 3 0.992188 c -1.644531 0 -3 1.355468 -3 3 v 8 c 0 1.644531 1.355469 3 3 3 h 10 c 1.644531 0 3 -1.355469 3 -3 v -8 c 0 -1.644532 -1.355469 -3 -3 -3 z m 0 2 h 10 c 0.570312 0 1 0.429687 1 1 v 8 c 0 0.570312 -0.429688 1 -1 1 h -10 c -0.570312 0 -1 -0.429688 -1 -1 v -8 c 0 -0.570313 0.429688 -1 1 -1 z m 0 0"
       id="path2" />
    <path
       d="m 6 1.992188 h 1 v 12 h -1 z m 0 0"
       id="path3" />
  </g>
</svg>
