<?xml version="1.0" encoding="UTF-8" standalone="no"?>
<svg
   height="16px"
   viewBox="0 0 16 16"
   width="16px"
   version="1.1"
   id="svg1573"
   sodipodi:docname="search.svg"
   inkscape:version="1.2.2 (b0a8486541, 2022-12-01)"
   xmlns:inkscape="http://www.inkscape.org/namespaces/inkscape"
   xmlns:sodipodi="http://sodipodi.sourceforge.net/DTD/sodipodi-0.dtd"
   xmlns="http://www.w3.org/2000/svg"
   xmlns:svg="http://www.w3.org/2000/svg">
  <defs
     id="defs1577" />
  <sodipodi:namedview
     id="namedview1575"
     pagecolor="#ffffff"
     bordercolor="#000000"
     borderopacity="0.25"
     inkscape:showpageshadow="2"
     inkscape:pageopacity="0.0"
     inkscape:pagecheckerboard="0"
     inkscape:deskcolor="#d1d1d1"
     showgrid="false"
     inkscape:zoom="41.7193"
     inkscape:cx="6.5677037"
     inkscape:cy="9.5759037"
     inkscape:window-width="1920"
     inkscape:window-height="1131"
     inkscape:window-x="0"
     inkscape:window-y="0"
     inkscape:window-maximized="1"
     inkscape:current-layer="svg1573" />
  <g
     fill="#222222"
     id="g1571"
     style="fill:#dfdfdf;fill-opacity:1">
    <path
       d="m 10.875 10.0625 c -0.8125 0.148438 -1.105469 1.160156 -0.5 1.71875 l 3 3 c 0.957031 0.9375 2.363281 -0.5 1.40625 -1.4375 l -3 -3 c -0.234375 -0.238281 -0.578125 -0.347656 -0.90625 -0.28125 z m 0 0"
       id="path1567"
       style="fill:#dfdfdf;fill-opacity:1" />
    <path
       d="m 6.570312 0.0625 c -3.578124 0 -6.4999995 2.921875 -6.4999995 6.5 s 2.9218755 6.5 6.4999995 6.5 c 3.578126 0 6.5 -2.921875 6.5 -6.5 s -2.921874 -6.5 -6.5 -6.5 z m 0 2 c 2.496094 0 4.5 2.003906 4.5 4.5 c 0 2.5 -2.003906 4.5 -4.5 4.5 c -2.496093 0 -4.5 -2 -4.5 -4.5 c 0 -2.496094 2.003907 -4.5 4.5 -4.5 z m 0 0"
       id="path1569"
       style="fill:#dfdfdf;fill-opacity:1" />
  </g>
</svg>
