<?xml version="1.0" encoding="UTF-8" standalone="no"?>
<svg
   width="16"
   height="16"
   version="1.1"
   id="svg2620"
   sodipodi:docname="xapp-use-regex-symbolic.svg"
   inkscape:version="1.2.2 (b0a8486541, 2022-12-01)"
   xmlns:inkscape="http://www.inkscape.org/namespaces/inkscape"
   xmlns:sodipodi="http://sodipodi.sourceforge.net/DTD/sodipodi-0.dtd"
   xmlns="http://www.w3.org/2000/svg"
   xmlns:svg="http://www.w3.org/2000/svg">
  <defs
     id="defs2624" />
  <sodipodi:namedview
     id="namedview2622"
     pagecolor="#ffffff"
     bordercolor="#000000"
     borderopacity="0.25"
     inkscape:showpageshadow="2"
     inkscape:pageopacity="0.0"
     inkscape:pagecheckerboard="0"
     inkscape:deskcolor="#d1d1d1"
     showgrid="false"
     inkscape:zoom="29.5"
     inkscape:cx="7.1864407"
     inkscape:cy="13.474576"
     inkscape:window-width="2560"
     inkscape:window-height="1403"
     inkscape:window-x="0"
     inkscape:window-y="0"
     inkscape:window-maximized="1"
     inkscape:current-layer="svg2620" />
  <path
     d="M 10.5,1 C 10.223,1 10,1.2231 10,1.5 V 3.2931 L 8.7324,2.0255 C 8.5366,1.8296 8.2213,1.8296 8.0254,2.0255 7.8295,2.2214 7.8295,2.5367 8.0254,2.7325 L 9.293,4 H 7.5 C 7.223,4 7,4.2231 7,4.5 7,4.7771 7.223,5 7.5,5 H 9.293 L 8.0254,6.2677 C 7.8295,6.4635 7.8295,6.7788 8.0254,6.9747 8.2213,7.1706 8.5366,7.1706 8.7324,6.9747 L 10,5.7071 V 7.5 C 10,7.7771 10.223,8 10.5,8 10.777,8 11,7.7771 11,7.5 V 5.7071 L 12.268,6.9747 C 12.463,7.1706 12.779,7.1706 12.975,6.9747 13.17,6.7788 13.17,6.4635 12.975,6.2677 L 11.707,5 H 13.5 C 13.777,5 14,4.7771 14,4.5 14,4.2231 13.777,4 13.5,4 H 11.707 L 12.975,2.7325 C 13.17,2.5367 13.17,2.2214 12.975,2.0255 12.779,1.8296 12.463,1.8296 12.268,2.0255 L 11,3.2931 V 1.5 C 11,1.2231 10.777,1 10.5,1 Z M 2.5,12 C 1.6716,12 1,12.672 1,13.5 1,14.328 1.6716,15 2.5,15 3.3284,15 4,14.328 4,13.5 4,12.672 3.3284,12 2.5,12 Z"
     style="fill:#dfdfdf;fill-opacity:1"
     id="path2618" />
</svg>
